<svg width="33" height="33" viewBox="0 0 33 33" fill="none" xmlns="http://www.w3.org/2000/svg">
<path d="M16.5005 9.99658V16.4998L20.565 20.5643" stroke="#201B10" stroke-width="2.43872" stroke-linecap="round" stroke-linejoin="round"/>
<mask id="path-2-inside-1_110_206" fill="white">
<path d="M4.04371 8.16103L2.82435 8.16591C2.82563 8.48734 2.95377 8.79525 3.1809 9.02269C3.40803 9.25013 3.71578 9.37868 4.0372 9.38039L4.04371 8.16103ZM8.17652 9.3999C8.33664 9.40065 8.49535 9.36985 8.64358 9.30926C8.7918 9.24867 8.92664 9.15948 9.0404 9.04678C9.15415 8.93408 9.2446 8.80008 9.30657 8.65243C9.36854 8.50478 9.40082 8.34636 9.40156 8.18623C9.40231 8.02611 9.37151 7.8674 9.31092 7.71917C9.25034 7.57095 9.16115 7.43611 9.04845 7.32235C8.93575 7.2086 8.80174 7.11815 8.65409 7.05618C8.50644 6.99421 8.34803 6.96193 8.1879 6.96119L8.17652 9.3999ZM5.24193 4.01522C5.24107 3.85509 5.20869 3.6967 5.14662 3.54909C5.08455 3.40147 4.99402 3.26753 4.88019 3.15491C4.76636 3.04228 4.63146 2.95318 4.48319 2.89269C4.33492 2.8322 4.1762 2.80151 4.01607 2.80236C3.85594 2.80322 3.69755 2.8356 3.54993 2.89767C3.40232 2.95974 3.26838 3.05027 3.15576 3.1641C3.04313 3.27794 2.95403 3.41284 2.89354 3.5611C2.83305 3.70937 2.80236 3.8681 2.80321 4.02823L5.24193 4.01522ZM3.21292 14.5245C3.23628 14.3651 3.22784 14.2027 3.18808 14.0466C3.14833 13.8905 3.07804 13.7439 2.98128 13.6151C2.88453 13.4863 2.76322 13.378 2.62437 13.2964C2.48551 13.2148 2.33186 13.1615 2.1723 13.1396C2.01273 13.1176 1.8504 13.1276 1.69468 13.1688C1.53897 13.2099 1.39296 13.2816 1.26509 13.3795C1.13721 13.4774 1.03 13.5997 0.949653 13.7393C0.869305 13.8789 0.817409 14.033 0.796963 14.1928L3.21292 14.5245ZM27.657 5.34351C21.4464 -0.867089 11.4103 -0.932122 5.2403 5.23945L6.96366 6.96281C12.1663 1.76185 20.6579 1.79274 25.9336 7.06686L27.657 5.34351ZM5.34435 27.6561C11.5549 33.8667 21.5911 33.9318 27.761 27.7602L26.0377 26.0368C20.8351 31.2378 12.3435 31.2069 7.06771 25.9328L5.34435 27.6561ZM27.761 27.7602C33.931 21.5902 33.8676 11.5541 27.657 5.34351L25.9336 7.06686C31.2077 12.3426 31.2386 20.8342 26.0377 26.0368L27.761 27.7602ZM5.2403 5.23945L3.1804 7.29773L4.90539 9.02109L6.96366 6.96281L5.2403 5.23945ZM4.0372 9.38039L8.17652 9.3999L8.1879 6.96119L4.05021 6.94168L4.0372 9.38039ZM5.26306 8.15453L5.24193 4.01522L2.80321 4.02823L2.82435 8.16591L5.26306 8.15453ZM0.795337 14.1912C0.461045 16.6341 0.697705 19.1212 1.48673 21.4573C2.27575 23.7933 3.59564 25.9146 5.34273 27.6545L7.06609 25.9311C5.58513 24.4571 4.46624 22.6597 3.79737 20.6802C3.1285 18.7007 2.92789 16.593 3.21129 14.5228L0.795337 14.1912Z"/>
</mask>
<path d="M6.10198 6.10113L6.63231 5.5708L5.77063 4.70912L5.2403 5.23945L4.70997 5.76978L5.57165 6.63146L6.10198 6.10113ZM8.1879 6.96119L7.4379 6.95769L7.42652 9.3964L8.17652 9.3999L8.92651 9.4034L8.93789 6.96469L8.1879 6.96119ZM2.80321 4.02823L2.80721 4.77821L5.24593 4.76521L5.24193 4.01522L5.23793 3.26523L2.79921 3.27824L2.80321 4.02823ZM5.2403 5.23945L4.70997 5.76978L6.43333 7.49314L6.96366 6.96281L7.49399 6.43248L5.77063 4.70912L5.2403 5.23945ZM25.9336 7.06686L26.4639 7.59719L28.1873 5.87384L27.657 5.34351L27.1266 4.81318L25.4033 6.53653L25.9336 7.06686ZM27.761 27.7602L28.2914 27.2298L26.568 25.5065L26.0377 26.0368L25.5073 26.5671L27.2307 28.2905L27.761 27.7602ZM5.2403 5.23945L6.30054 6.30053L6.3011 6.29997L5.2403 5.23945ZM4.04371 8.16103L5.54368 8.16903L5.55176 6.65499L4.03771 6.66105L4.04371 8.16103ZM4.0372 9.38039L4.02921 10.8804L4.03013 10.8804L4.0372 9.38039ZM8.17652 9.3999L8.16945 10.8999L8.16952 10.8999L8.17652 9.3999ZM8.1879 6.96119L8.18082 8.46117L8.1809 8.46117L8.1879 6.96119ZM5.24193 4.01522L6.74191 4.00756L6.74191 4.00722L5.24193 4.01522ZM2.80321 4.02823L4.30319 4.02056L4.30319 4.02023L2.80321 4.02823ZM3.21292 14.5245L3.00891 16.0105L4.48145 16.2127L4.69705 14.742L3.21292 14.5245ZM0.796963 14.1928L-0.690902 14.0024L-0.879586 15.4767L0.592955 15.6789L0.796963 14.1928ZM6.96366 6.96281L5.90317 5.90199L5.903 5.90215L6.96366 6.96281ZM25.9336 7.06686L26.9944 6.00637L26.9941 6.00604L25.9336 7.06686ZM5.34435 27.6561L4.28369 26.5955L3.22303 27.6561L4.28369 28.7168L5.34435 27.6561ZM27.761 27.7602L26.7004 26.6995L26.7002 26.6997L27.761 27.7602ZM26.0377 26.0368L27.0982 27.0976L27.0985 27.0973L26.0377 26.0368ZM7.06771 25.9328L8.12821 24.8719L7.06755 23.8116L6.00705 24.8721L7.06771 25.9328ZM3.1804 7.29773L2.12016 6.23665L1.05816 7.29781L2.12024 8.35889L3.1804 7.29773ZM4.90539 9.02109L3.84523 10.0822L4.90589 11.1419L5.96605 10.0817L4.90539 9.02109ZM4.05021 6.94168L4.05728 5.44169L2.55823 5.43463L2.55023 6.93368L4.05021 6.94168ZM5.26306 8.15453L5.27006 9.65452L6.77071 9.64751L6.76304 8.14687L5.26306 8.15453ZM0.795337 14.1912L0.999346 12.7051L-0.487359 12.501L-0.690813 13.9878L0.795337 14.1912ZM5.34273 27.6545L4.28425 28.7173L5.34491 29.7736L6.40339 28.7152L5.34273 27.6545ZM7.06609 25.9311L8.12675 26.9918L9.18991 25.9286L8.12425 24.868L7.06609 25.9311ZM3.21129 14.5228L4.69743 14.7263L4.9008 13.2407L3.4153 13.0368L3.21129 14.5228ZM4.04371 8.16103L4.03771 6.66105L2.81835 6.66592L2.82435 8.16591L2.83035 9.6659L4.04971 9.66102L4.04371 8.16103ZM2.82435 8.16591L1.32436 8.17189C1.32722 8.88872 1.613 9.57542 2.11953 10.0826L3.1809 9.02269L4.24227 7.96274C4.29455 8.01509 4.32404 8.08596 4.32434 8.15993L2.82435 8.16591ZM3.1809 9.02269L2.11953 10.0826C2.62607 10.5899 3.31239 10.8766 4.02921 10.8804L4.0372 9.38039L4.04519 7.88041C4.11917 7.88081 4.19 7.91039 4.24227 7.96274L3.1809 9.02269ZM4.0372 9.38039L5.53718 9.38839L5.54368 8.16903L4.04371 8.16103L2.54373 8.15304L2.53722 9.37239L4.0372 9.38039ZM8.17652 9.3999L8.16952 10.8999C8.52662 10.9016 8.88056 10.8329 9.21113 10.6977L8.64358 9.30926L8.07603 7.92078C8.11014 7.90683 8.14666 7.89975 8.18352 7.89992L8.17652 9.3999ZM8.64358 9.30926L9.21113 10.6977C9.54169 10.5626 9.84241 10.3637 10.0961 10.1124L9.0404 9.04678L7.9847 7.98119C8.01088 7.95525 8.04191 7.93472 8.07603 7.92078L8.64358 9.30926ZM9.0404 9.04678L10.0961 10.1124C10.3498 9.86105 10.5515 9.56221 10.6897 9.23292L9.30657 8.65243L7.92344 8.07194C7.93771 8.03796 7.95852 8.00712 7.9847 7.98119L9.0404 9.04678ZM9.30657 8.65243L10.6897 9.23292C10.8279 8.90363 10.8999 8.55034 10.9015 8.19323L9.40156 8.18623L7.90158 8.17923C7.90175 8.14238 7.90918 8.10593 7.92344 8.07194L9.30657 8.65243ZM9.40156 8.18623L10.9015 8.19323C10.9032 7.83613 10.8345 7.48219 10.6994 7.15162L9.31092 7.71917L7.92244 8.28673C7.9085 8.25261 7.90141 8.21609 7.90158 8.17923L9.40156 8.18623ZM9.31092 7.71917L10.6994 7.15162C10.5643 6.82106 10.3654 6.52035 10.114 6.26665L9.04845 7.32235L7.98285 8.37805C7.95691 8.35187 7.93639 8.32084 7.92244 8.28673L9.31092 7.71917ZM9.04845 7.32235L10.114 6.26665C9.86271 6.01296 9.56387 5.81126 9.23458 5.67306L8.65409 7.05618L8.07361 8.43931C8.03962 8.42505 8.00879 8.40423 7.98285 8.37805L9.04845 7.32235ZM8.65409 7.05618L9.23458 5.67306C8.90529 5.53486 8.55201 5.46287 8.1949 5.4612L8.1879 6.96119L8.1809 8.46117C8.14404 8.461 8.10759 8.45357 8.07361 8.43931L8.65409 7.05618ZM5.24193 4.01522L6.74191 4.00722C6.74 3.65011 6.66778 3.29688 6.52936 2.96768L5.14662 3.54909L3.76388 4.13049C3.7496 4.09652 3.74215 4.06007 3.74195 4.02322L5.24193 4.01522ZM5.14662 3.54909L6.52936 2.96768C6.39094 2.63848 6.18904 2.33977 5.93518 2.08861L4.88019 3.15491L3.8252 4.22121C3.799 4.19529 3.77817 4.16446 3.76388 4.13049L5.14662 3.54909ZM4.88019 3.15491L5.93518 2.08861C5.68131 1.83744 5.38047 1.63873 5.04982 1.50383L4.48319 2.89269L3.91656 4.28155C3.88244 4.26763 3.8514 4.24713 3.8252 4.22121L4.88019 3.15491ZM4.48319 2.89269L5.04982 1.50383C4.71916 1.36893 4.36518 1.30048 4.00807 1.30239L4.01607 2.80236L4.02407 4.30234C3.98722 4.30254 3.95069 4.29548 3.91656 4.28155L4.48319 2.89269ZM4.01607 2.80236L4.00807 1.30239C3.65096 1.30429 3.29772 1.37651 2.96853 1.51493L3.54993 2.89767L4.13134 4.28041C4.09737 4.29469 4.06092 4.30215 4.02407 4.30234L4.01607 2.80236ZM3.54993 2.89767L2.96853 1.51493C2.63933 1.65335 2.34062 1.85526 2.08945 2.10912L3.15576 3.1641L4.22206 4.21909C4.19614 4.24529 4.16531 4.26612 4.13134 4.28041L3.54993 2.89767ZM3.15576 3.1641L2.08945 2.10912C1.83829 2.36298 1.63958 2.66382 1.50468 2.99448L2.89354 3.5611L4.2824 4.12773C4.26848 4.16185 4.24798 4.1929 4.22206 4.21909L3.15576 3.1641ZM2.89354 3.5611L1.50468 2.99448C1.36978 3.32513 1.30133 3.67912 1.30323 4.03623L2.80321 4.02823L4.30319 4.02023C4.30339 4.05708 4.29632 4.09361 4.2824 4.12773L2.89354 3.5611ZM3.21292 14.5245L4.69705 14.742C4.74916 14.3866 4.73033 14.0244 4.64167 13.6763L3.18808 14.0466L1.7345 14.4169C1.72535 14.3809 1.7234 14.3436 1.72878 14.3069L3.21292 14.5245ZM3.18808 14.0466L4.64167 13.6763C4.553 13.3283 4.39626 13.0012 4.18048 12.714L2.98128 13.6151L1.78209 14.5162C1.75982 14.4865 1.74365 14.4528 1.7345 14.4169L3.18808 14.0466ZM2.98128 13.6151L4.18048 12.714C3.9647 12.4268 3.69416 12.1853 3.3845 12.0032L2.62437 13.2964L1.86424 14.5895C1.83228 14.5707 1.80436 14.5458 1.78209 14.5162L2.98128 13.6151ZM2.62437 13.2964L3.3845 12.0032C3.07483 11.8212 2.73217 11.7023 2.3763 11.6535L2.1723 13.1396L1.96829 14.6256C1.93156 14.6206 1.8962 14.6083 1.86424 14.5895L2.62437 13.2964ZM2.1723 13.1396L2.3763 11.6535C2.02044 11.6046 1.65842 11.6268 1.31116 11.7186L1.69468 13.1688L2.07821 14.6189C2.04237 14.6284 2.00501 14.6307 1.96829 14.6256L2.1723 13.1396ZM1.69468 13.1688L1.31116 11.7186C0.963888 11.8105 0.638263 11.9702 0.353084 12.1886L1.26509 13.3795L2.17709 14.5704C2.14766 14.5929 2.11406 14.6094 2.07821 14.6189L1.69468 13.1688ZM1.26509 13.3795L0.353084 12.1886C0.0678976 12.407 -0.171192 12.6797 -0.35038 12.991L0.949653 13.7393L2.24968 14.4876C2.23119 14.5197 2.20652 14.5479 2.17709 14.5704L1.26509 13.3795ZM0.949653 13.7393L-0.35038 12.991C-0.529569 13.3023 -0.645304 13.6461 -0.690902 14.0024L0.796963 14.1928L2.28483 14.3832C2.28012 14.42 2.26818 14.4555 2.24968 14.4876L0.949653 13.7393ZM0.796963 14.1928L0.592955 15.6789L3.00891 16.0105L3.21292 14.5245L3.41692 13.0384L1.00097 12.7067L0.796963 14.1928ZM27.657 5.34351L28.7176 4.28285C21.9318 -2.50301 10.9457 -2.58909 4.1795 4.17893L5.2403 5.23945L6.3011 6.29997C11.8748 0.724843 20.961 0.768832 26.5963 6.40417L27.657 5.34351ZM6.96366 6.96281L8.02416 8.02364C12.6312 3.41804 20.1733 3.42928 24.8731 8.12769L25.9336 7.06686L26.9941 6.00604C21.1425 0.156192 11.7013 0.105655 5.90317 5.90199L6.96366 6.96281ZM5.34435 27.6561L4.28369 28.7168C11.0696 35.5026 22.0556 35.5887 28.8218 28.8207L27.761 27.7602L26.7002 26.6997C21.1266 32.2748 12.0403 32.2308 6.40501 26.5955L5.34435 27.6561ZM26.0377 26.0368L24.9772 24.976C20.3701 29.5816 12.8281 29.5704 8.12821 24.8719L7.06771 25.9328L6.00722 26.9936C11.8589 32.8434 21.3 32.894 27.0982 27.0976L26.0377 26.0368ZM7.06771 25.9328L6.00705 24.8721L4.28369 26.5955L5.34435 27.6561L6.40501 28.7168L8.12837 26.9934L7.06771 25.9328ZM27.761 27.7602L28.8217 28.8208C35.5877 22.0548 35.5037 11.0689 28.7176 4.28285L27.657 5.34351L26.5963 6.40417C32.2315 12.0393 32.2742 21.1256 26.7004 26.6995L27.761 27.7602ZM25.9336 7.06686L24.8728 8.12736C29.5712 12.8272 29.5824 20.3693 24.9768 24.9763L26.0377 26.0368L27.0985 27.0973C32.8948 21.2992 32.8443 11.858 26.9944 6.00637L25.9336 7.06686ZM5.2403 5.23945L4.18006 4.17838L2.12016 6.23665L3.1804 7.29773L4.24064 8.35881L6.30054 6.30053L5.2403 5.23945ZM3.1804 7.29773L2.12024 8.35889L3.84523 10.0822L4.90539 9.02109L5.96555 7.95993L4.24056 6.23657L3.1804 7.29773ZM4.90539 9.02109L5.96605 10.0817L8.02432 8.02347L6.96366 6.96281L5.903 5.90215L3.84473 7.96043L4.90539 9.02109ZM4.0372 9.38039L4.03013 10.8804L8.16945 10.8999L8.17652 9.3999L8.18359 7.89992L4.04427 7.88041L4.0372 9.38039ZM8.1879 6.96119L8.19497 5.4612L4.05728 5.44169L4.05021 6.94168L4.04314 8.44166L8.18082 8.46117L8.1879 6.96119ZM4.05021 6.94168L2.55023 6.93368L2.53722 9.37239L4.0372 9.38039L5.53718 9.38839L5.55019 6.94968L4.05021 6.94168ZM5.26306 8.15453L6.76304 8.14687L6.74191 4.00756L5.24193 4.01522L3.74195 4.02288L3.76308 8.16219L5.26306 8.15453ZM2.80321 4.02823L1.30323 4.03589L1.32437 8.17357L2.82435 8.16591L4.32433 8.15825L4.30319 4.02056L2.80321 4.02823ZM2.82435 8.16591L2.83135 9.6659L5.27006 9.65452L5.26306 8.15453L5.25606 6.65455L2.81735 6.66593L2.82435 8.16591ZM0.795337 14.1912L-0.690813 13.9878C-1.05654 16.6605 -0.797627 19.3815 0.0655999 21.9373L1.48673 21.4573L2.90785 20.9773C2.19304 18.8609 1.97863 16.6077 2.28149 14.3945L0.795337 14.1912ZM1.48673 21.4573L0.0655999 21.9373C0.928827 24.493 2.37285 26.8138 4.28425 28.7173L5.34273 27.6545L6.4012 26.5917C4.81843 25.0154 3.62267 23.0936 2.90785 20.9773L1.48673 21.4573ZM5.34273 27.6545L6.40339 28.7152L8.12675 26.9918L7.06609 25.9311L6.00543 24.8705L4.28207 26.5938L5.34273 27.6545ZM7.06609 25.9311L8.12425 24.868C6.80771 23.5576 5.81305 21.9598 5.21844 20.2L3.79737 20.6802L2.3763 21.1604C3.11943 23.3597 4.36255 25.3566 6.00793 26.9943L7.06609 25.9311ZM3.79737 20.6802L5.21844 20.2C4.62383 18.4403 4.44549 16.5666 4.69743 14.7263L3.21129 14.5228L1.72515 14.3194C1.41028 16.6194 1.63317 18.9611 2.3763 21.1604L3.79737 20.6802ZM3.21129 14.5228L3.4153 13.0368L0.999346 12.7051L0.795337 14.1912L0.591328 15.6772L3.00728 16.0089L3.21129 14.5228Z" fill="#201B10" mask="url(#path-2-inside-1_110_206)"/>
</svg>
